<?xml version="1.0" standalone="no"?><!-- Generator: Gravit.io --><svg xmlns="http://www.w3.org/2000/svg" xmlns:xlink="http://www.w3.org/1999/xlink" style="isolation:isolate" viewBox="246.15 257.348 31.997 31.992" width="31.997" height="31.992"><g><g><path d=" M 262.15 259.348 C 263.253 259.348 264.15 260.245 264.15 261.348 C 264.15 262.451 263.253 263.348 262.15 263.348 C 261.048 263.348 260.15 262.451 260.15 261.348 C 260.15 260.245 261.048 259.348 262.15 259.348 Z  M 266.142 269.623 C 265.922 269.81 265.222 270.069 264.103 270.222 L 262.706 266.515 L 263.546 265.255 L 264.176 265.745 C 265.36 266.666 265.909 267.093 266.142 269.623 Z  M 260.125 265.745 L 260.754 265.255 L 261.595 266.515 L 260.198 270.222 C 259.085 270.069 258.387 269.813 258.162 269.626 C 258.402 267.084 258.952 266.656 260.125 265.745 Z  M 256.149 269.723 C 256.149 270.117 256.297 270.863 257.285 271.434 C 258.331 272.038 260.24 272.34 262.15 272.34 C 264.06 272.34 265.971 272.037 267.016 271.434 C 268.003 270.863 268.15 270.116 268.147 269.638 C 267.855 266.228 266.96 265.376 265.402 264.166 L 265.149 263.969 C 265.765 263.266 266.15 262.355 266.15 261.348 C 266.15 259.139 264.359 257.348 262.15 257.348 C 259.941 257.348 258.15 259.139 258.15 261.348 C 258.15 262.355 258.536 263.266 259.15 263.969 L 258.897 264.166 C 257.34 265.376 256.445 266.228 256.149 269.723 Z " fill="rgb(111,111,111)"/><path d=" M 254.103 287.222 L 252.706 283.515 L 253.546 282.255 L 254.175 282.744 C 255.359 283.665 255.909 284.092 256.142 286.623 C 255.922 286.81 255.222 287.069 254.103 287.222 Z  M 250.125 282.745 L 250.755 282.255 L 251.595 283.515 L 250.198 287.222 C 249.085 287.07 248.388 286.813 248.163 286.626 C 248.403 284.084 248.953 283.656 250.125 282.745 Z  M 252.15 276.348 C 253.253 276.348 254.15 277.245 254.15 278.348 C 254.15 279.451 253.253 280.348 252.15 280.348 C 251.048 280.348 250.15 279.451 250.15 278.348 C 250.15 277.245 251.048 276.348 252.15 276.348 Z  M 255.402 281.165 L 255.15 280.969 C 255.766 280.266 256.15 279.355 256.15 278.348 C 256.15 276.139 254.359 274.348 252.15 274.348 C 249.941 274.348 248.15 276.139 248.15 278.348 C 248.15 279.356 248.536 280.266 249.151 280.969 L 248.898 281.166 C 247.341 282.376 246.445 283.228 246.15 286.723 C 246.15 287.117 246.298 287.863 247.286 288.434 C 248.332 289.038 250.241 289.34 252.15 289.34 C 254.061 289.34 255.971 289.037 257.016 288.434 C 258.003 287.863 258.15 287.116 258.147 286.638 C 257.855 283.227 256.96 282.376 255.402 281.165 Z " fill="rgb(111,111,111)"/><path d=" M 274.103 287.222 L 272.706 283.515 L 273.546 282.255 L 274.175 282.744 C 275.359 283.665 275.909 284.092 276.142 286.623 C 275.922 286.81 275.222 287.069 274.103 287.222 Z  M 270.125 282.745 L 270.755 282.255 L 271.595 283.515 L 270.198 287.222 C 269.085 287.07 268.388 286.813 268.163 286.626 C 268.403 284.084 268.953 283.656 270.125 282.745 Z  M 272.15 276.348 C 273.253 276.348 274.15 277.245 274.15 278.348 C 274.15 279.451 273.253 280.348 272.15 280.348 C 271.048 280.348 270.15 279.451 270.15 278.348 C 270.15 277.245 271.048 276.348 272.15 276.348 Z  M 275.402 281.165 L 275.15 280.969 C 275.766 280.266 276.15 279.355 276.15 278.348 C 276.15 276.139 274.359 274.348 272.15 274.348 C 269.941 274.348 268.15 276.139 268.15 278.348 C 268.15 279.356 268.536 280.266 269.151 280.969 L 268.898 281.166 C 267.341 282.376 266.445 283.228 266.15 286.723 C 266.15 287.117 266.298 287.863 267.286 288.434 C 268.332 289.038 270.241 289.34 272.15 289.34 C 274.061 289.34 275.971 289.037 277.016 288.434 C 278.003 287.863 278.15 287.116 278.147 286.638 C 277.855 283.227 276.96 282.376 275.402 281.165 Z " fill="rgb(111,111,111)"/></g><g><path d=" M 271.15 270.348 C 271.15 270.954 271.09 271.561 270.97 272.148 C 270.86 272.689 271.21 273.218 271.751 273.327 C 271.818 273.341 271.885 273.348 271.951 273.348 C 272.417 273.348 272.834 273.021 272.93 272.547 C 273.076 271.827 273.15 271.088 273.15 270.348 C 273.15 266.853 271.545 263.644 268.745 261.544 C 268.305 261.214 267.677 261.303 267.346 261.743 C 267.014 262.186 267.104 262.813 267.545 263.144 C 269.836 264.862 271.15 267.488 271.15 270.348 Z " fill="rgb(111,111,111)"/><path d=" M 267.066 279.116 C 266.846 278.61 266.257 278.379 265.75 278.599 C 265.458 278.727 265.158 278.839 264.85 278.936 C 262.803 279.58 260.524 279.462 258.551 278.6 C 258.045 278.377 257.456 278.608 257.234 279.115 C 257.013 279.621 257.244 280.211 257.75 280.432 C 259.141 281.04 260.621 281.348 262.15 281.348 C 263.276 281.348 264.387 281.178 265.45 280.844 C 265.826 280.726 266.192 280.588 266.55 280.433 C 267.056 280.212 267.287 279.622 267.066 279.116 Z " fill="rgb(111,111,111)"/><path d=" M 252.35 273.348 C 252.415 273.348 252.482 273.341 252.55 273.327 C 253.091 273.218 253.44 272.689 253.33 272.148 C 253.211 271.561 253.15 270.954 253.15 270.348 C 253.15 267.489 254.463 264.865 256.751 263.146 C 257.192 262.814 257.282 262.188 256.95 261.746 C 256.619 261.305 255.992 261.217 255.55 261.547 C 252.754 263.646 251.15 266.854 251.15 270.348 C 251.15 271.088 251.225 271.827 251.37 272.547 C 251.467 273.021 251.884 273.348 252.35 273.348 Z " fill="rgb(111,111,111)"/></g></g></svg>