<?xml version="1.0" standalone="no"?><!-- Generator: Gravit.io --><svg xmlns="http://www.w3.org/2000/svg" xmlns:xlink="http://www.w3.org/1999/xlink" style="isolation:isolate" viewBox="281.523 114.917 61.477 170.166" width="61.477" height="170.166"><g><path d=" M 293.982 146.655 C 292.574 150.168 291.201 152.923 289.732 156.369 C 285.88 165.403 282.387 169.15 281.628 174.581 C 280.862 180.055 284.495 186.84 286.238 194.775 C 287.385 200 286.621 211.251 286.841 216.75 L 316.893 219.634 C 316.934 213.937 317.911 211.396 319.433 209.789 C 321.418 207.696 324.331 207.187 327.314 203.352 C 330.362 199.434 334.525 192.881 337.023 188.756 C 338.349 186.566 341.129 179.848 341.75 178.18 C 342.344 176.582 339.14 179.831 337.735 177.301 C 339.949 169.651 339.997 171.028 337.921 163.345 C 341.098 154.604 341.66 156.771 337.735 148.458 L 337.362 137.665 L 306.473 142.689 L 293.982 146.655 Z " fill-rule="evenodd" fill="rgb(254,219,170)"/><path d=" M 334.408 192.976 C 335.379 191.441 336.276 189.99 337.023 188.756 C 338.349 186.566 341.129 179.848 341.75 178.18 C 342.344 176.582 339.14 179.831 337.735 177.301 C 339.949 169.651 339.997 171.028 337.921 163.345 C 341.098 154.604 341.66 156.771 337.735 148.458 L 337.362 137.665 L 306.473 142.689 L 296.92 145.723 L 298.877 148.526 C 298.982 159.024 294.44 164.155 292.824 170.599 C 291.841 174.514 291.888 177.954 291.832 180.951 C 291.733 186.217 292.382 190.021 294.208 191.946 C 295.381 193.183 296.965 192.953 298.878 192.994 C 314.246 193.331 327.378 194.557 334.408 192.976 Z " fill-rule="evenodd" fill="rgb(237,191,111)"/><path d=" M 298.958 114.917 L 333.514 115.042 C 335.872 115.05 337.794 116.985 337.785 119.343 L 337.543 186.381 C 337.535 188.738 335.598 190.66 333.242 190.651 L 298.685 190.526 C 296.328 190.519 294.407 188.583 294.415 186.226 L 294.657 119.187 C 294.666 116.83 296.601 114.908 298.958 114.917 Z " fill-rule="evenodd" fill="rgb(64,99,122)"/><path d=" M 298.329 122.83 L 334.087 122.959 L 333.892 177.006 L 298.133 176.877 L 298.329 122.83 Z " fill-rule="evenodd" fill="rgb(179,225,233)"/><path d=" M 299.463 118.877 L 332.592 118.996 C 333.034 118.998 333.393 119.359 333.391 119.801 L 333.391 119.801 C 333.39 120.242 333.028 120.603 332.587 120.601 L 299.457 120.481 C 299.015 120.479 298.656 120.117 298.658 119.676 L 298.658 119.676 C 298.659 119.234 299.022 118.875 299.463 118.877 Z " fill-rule="evenodd" fill="rgb(195,222,225)"/><path d=" M 312.348 178.881 L 319.663 178.907 C 320.836 178.911 321.793 179.874 321.788 181.048 L 321.768 186.595 C 321.764 187.769 320.8 188.725 319.628 188.72 L 312.313 188.693 C 311.139 188.689 310.183 187.727 310.188 186.553 L 310.208 181.006 C 310.212 179.832 311.175 178.876 312.348 178.881 Z " fill-rule="evenodd" fill="rgb(195,222,225)"/><path d=" M 315.996 181.568 C 317.229 181.572 318.224 182.576 318.22 183.809 C 318.215 185.041 317.213 186.037 315.98 186.032 C 314.748 186.028 313.752 185.025 313.755 183.792 C 313.76 182.56 314.763 181.563 315.996 181.568 Z " fill-rule="evenodd" fill="rgb(64,99,122)"/><path d=" M 316.237 114.979 L 333.514 115.042 C 335.873 115.051 337.794 116.985 337.785 119.343 L 337.543 186.381 C 337.535 188.738 335.599 190.66 333.242 190.651 L 315.964 190.589 L 315.971 188.608 L 320.19 184.775 L 316.005 178.968 L 316.013 176.864 L 324.559 172.69 L 316.208 122.968 L 316.217 120.41 L 319.432 120.104 L 316.222 118.981 L 316.237 114.979 Z " fill-rule="evenodd" fill="rgb(52,73,87)"/><path d=" M 316.209 122.895 L 334.088 122.959 L 333.892 177.006 L 316.013 176.941 L 316.209 122.895 Z " fill-rule="evenodd" fill="rgb(141,206,214)"/><path d=" M 316.222 118.937 L 332.592 118.996 C 333.034 118.998 333.393 119.359 333.391 119.801 L 333.391 119.802 C 333.39 120.243 333.028 120.603 332.587 120.601 L 316.216 120.542 L 316.222 118.937 Z " fill-rule="evenodd" fill="rgb(154,201,205)"/><path d=" M 316.006 178.894 L 319.663 178.907 C 320.837 178.911 321.793 179.875 321.788 181.048 L 321.768 186.595 C 321.764 187.769 320.8 188.725 319.628 188.72 L 315.97 188.707 L 315.981 185.753 L 317.853 183.855 L 315.996 181.904 L 316.006 178.894 Z " fill-rule="evenodd" fill="rgb(154,201,205)"/><path d=" M 315.997 181.568 C 317.229 181.573 318.224 182.576 318.22 183.809 C 318.215 185.041 317.213 186.036 315.98 186.032 L 315.997 181.568 Z " fill-rule="evenodd" fill="rgb(52,73,87)"/><path d=" M 336.691 149.529 C 332.833 150.814 330.564 151.19 326.208 152.285 C 323.087 153.069 321.678 151.113 321.306 149.358 C 320.467 145.406 324.596 143.371 329.218 141.413 C 332.279 140.116 335.529 138.721 337.904 137.797 C 341.256 136.493 343.443 142.662 342.328 145.263 C 341.553 147.069 338.773 148.238 336.691 149.529 Z  M 340.035 161.165 C 341.588 160.016 341.992 158.995 341.794 157.345 C 341.611 155.825 340.983 153.38 339.726 152.628 C 339.089 152.247 338.319 152.14 337.275 152.048 C 335.505 152.479 333.137 153.318 330.179 154.265 C 324.949 155.937 318.67 158.033 316.436 159.458 C 312.902 161.712 313.6 167.392 317.983 167.061 C 326.246 165.144 332.777 163.356 340.035 161.165 L 340.035 161.165 Z  M 341.321 170.096 L 340.346 170.197 L 338.706 170.545 L 328.035 173.228 C 324.598 174.269 319.833 175.851 317.605 174.713 C 316.31 174.051 315.304 173.158 315.529 170.747 C 315.702 168.895 316.362 167.626 318.169 167.298 C 326.012 165.871 332.839 163.803 340.429 161.475 C 342.468 161.777 342.6 163.514 342.809 165.093 C 343.007 166.586 343.502 168.964 341.321 170.096 L 341.321 170.096 Z  M 338.351 183.733 C 340.04 182.182 341.382 180.495 342.214 178.033 C 343.073 175.49 343.191 172.027 341.149 170.411 C 336.151 171.593 331.195 172.859 326.216 174.128 C 324.252 174.63 323.11 177.624 324.578 179.44 C 325.86 181.027 331.068 180.752 334.598 180.356 C 336.716 180.119 337.261 180.178 337.46 181.133 C 337.694 182.265 337.93 182.991 338.351 183.733 L 338.351 183.733 Z " fill-rule="evenodd" fill="rgb(254,219,170)"/><path d=" M 324.86 179.714 C 326.498 180.993 331.286 180.728 334.598 180.356 C 336.716 180.119 337.261 180.178 337.46 181.133 C 337.676 182.183 337.896 182.883 338.262 183.571 C 338.324 181.779 339.074 179.396 339.665 177.987 C 334.494 179.574 329.986 180.274 324.86 179.714 Z " fill-rule="evenodd" fill="rgb(237,191,111)"/><path d=" M 340.035 161.165 C 341.079 160.393 341.603 159.679 341.775 158.793 C 339.424 159.973 335.363 160.725 332.874 161.369 C 329.062 162.356 325.415 163.497 321.066 165.041 C 319.217 165.697 317.215 166.232 315.353 166.293 C 315.983 166.836 316.862 167.146 317.983 167.061 C 326.246 165.144 332.777 163.356 340.035 161.165 Z " fill-rule="evenodd" fill="rgb(237,191,111)"/><path d=" M 336.691 149.529 C 338.773 148.238 341.553 147.069 342.328 145.263 C 342.406 145.081 342.467 144.881 342.513 144.666 C 337 147.72 326.181 152.685 321.938 150.675 L 322.17 151.228 C 322.944 152.181 324.233 152.781 326.208 152.285 C 330.564 151.19 332.833 150.814 336.691 149.529 Z " fill-rule="evenodd" fill="rgb(237,191,111)"/><path d=" M 329.38 149.782 C 328.579 150.199 326.222 151.367 324.88 151.142 C 322.946 150.816 321.797 147.937 323.052 146.399 C 323.899 145.363 326.308 144.171 327.607 144.207 C 328.409 144.229 329.37 145.395 329.803 146.887 C 330.153 148.089 330.179 149.365 329.38 149.782 Z " fill-rule="evenodd" fill="rgb(254,239,219)"/><path d=" M 321.873 164.943 C 321.073 165.36 318.715 166.528 317.374 166.303 C 315.439 165.979 314.292 163.099 315.546 161.561 C 316.392 160.524 318.801 159.332 320.101 159.369 C 320.902 159.392 321.863 160.556 322.296 162.048 C 322.646 163.25 322.673 164.527 321.873 164.943 Z " fill-rule="evenodd" fill="rgb(254,239,219)"/><path d=" M 329.251 174.781 C 328.552 174.8 326.517 174.892 325.693 175.548 C 324.505 176.493 324.806 178.875 326.233 179.446 C 327.195 179.83 329.274 179.734 330.141 179.223 C 330.674 178.907 330.889 177.758 330.624 176.584 C 330.409 175.639 329.949 174.764 329.251 174.781 Z " fill-rule="evenodd" fill="rgb(254,239,219)"/><path d=" M 342.991 167.374 C 340.196 168.839 330.179 171.319 324.007 173.019 C 321.106 173.818 319.087 174.374 317.28 174.537 C 317.385 174.598 317.494 174.656 317.605 174.713 C 319.833 175.851 324.598 174.269 328.035 173.228 L 336.79 171.026 L 337.338 170.889 L 338.706 170.545 L 340.346 170.197 L 341.321 170.096 C 342.55 169.457 342.929 168.423 342.991 167.374 Z " fill-rule="evenodd" fill="rgb(237,191,111)"/><path d=" M 321.694 167.659 C 320.797 167.766 318.192 168.128 317.211 169.069 C 315.795 170.428 316.468 173.454 318.371 174.018 C 319.654 174.397 322.316 174.026 323.369 173.265 C 324.018 172.795 324.157 171.291 323.674 169.814 C 323.287 168.623 322.59 167.553 321.694 167.659 Z " fill-rule="evenodd" fill="rgb(254,239,219)"/><path d=" M 293.866 145.946 C 292.458 149.458 291.201 152.923 289.732 156.369 C 285.88 165.403 282.387 169.15 281.628 174.581 C 281.213 177.542 282.087 180.888 283.252 184.592 L 294.378 176.696 C 294.165 172.402 294.732 169.783 296.088 166.339 C 299.08 158.746 302.787 148.447 293.866 145.946 Z " fill-rule="evenodd" fill="rgb(254,219,170)"/><path d=" M 291.877 178.472 L 294.378 176.696 C 294.165 172.402 294.732 169.783 296.088 166.339 C 298.176 161.038 300.613 154.419 298.858 150.055 C 298.537 159.538 294.36 164.477 292.824 170.599 C 292.102 173.476 291.936 176.095 291.877 178.472 Z " fill-rule="evenodd" fill="rgb(237,191,111)"/><path d=" M 293.866 145.946 C 292.89 148.381 291.986 150.793 291.034 153.192 C 293.327 154.844 294.309 153.874 295.071 152.059 C 295.691 150.581 296.219 148.895 296.742 147.302 C 295.978 146.733 295.031 146.272 293.866 145.946 Z " fill-rule="evenodd" fill="rgb(254,239,219)"/><path d=" M 285.941 204.815 C 297.004 207.227 307.52 209.398 318.692 211.235 L 314.691 225.005 L 285.941 226.215 L 285.941 204.815 Z " fill-rule="evenodd" fill="rgb(179,225,233)"/><path d=" M 312.666 212.029 L 315.202 210.658 L 318.692 211.235 L 314.691 225.005 L 302.132 225.533 L 286.027 213.569 C 295.063 213.472 303.665 212.635 312.666 212.029 Z " fill-rule="evenodd" fill="rgb(141,206,214)"/><path d=" M 284.175 213.608 C 296.271 214.827 307.2 214.787 318.88 213.608 L 318.88 261.083 L 318.88 285.083 L 284.175 285.083 L 284.175 213.608 Z " fill-rule="evenodd" fill="rgb(21,101,192)"/><path d=" M 313.38 214.067 C 314.287 213.999 316.838 213.829 318.88 213.608 L 318.877 285.08 L 284.179 285.075 L 284.179 284.006 C 291.288 283.268 309.753 281.599 314.024 277.297 L 313.38 214.067 Z " fill-rule="evenodd" fill="rgb(13,71,161)"/></g></svg>