<?xml version="1.0" standalone="no"?><!-- Generator: Gravit.io --><svg xmlns="http://www.w3.org/2000/svg" xmlns:xlink="http://www.w3.org/1999/xlink" style="isolation:isolate" viewBox="120.68 258.344 29 30" width="29" height="30"><path d=" M 137.68 272.344 C 137.614 272.344 137.548 272.352 137.483 272.364 L 132.584 273.344 C 132.508 273.351 132.431 273.367 132.356 273.393 C 131.958 273.526 131.687 273.895 131.676 274.314 C 131.639 275.848 131.308 277.507 130.745 278.989 C 130.725 279.04 130.71 279.094 130.699 279.147 L 129.71 284.102 C 129.369 285.465 128.572 286.344 127.68 286.344 C 126.787 286.344 125.99 285.465 125.66 284.147 L 124.66 279.147 C 124.567 278.681 124.156 278.344 123.68 278.344 C 122.68 278.344 122.68 278.344 122.676 276.427 C 122.99 272.664 123.877 271.266 125.304 270.126 C 125.37 270.073 125.429 270.011 125.479 269.943 C 125.502 269.914 125.528 269.883 125.551 269.853 C 125.752 269.947 125.961 270.021 126.176 270.089 L 127.013 271.344 L 125.68 274.678 L 127.68 277.344 L 129.68 274.678 L 128.346 271.344 L 129.183 270.089 C 129.397 270.021 129.607 269.947 129.808 269.853 C 129.832 269.883 129.857 269.914 129.88 269.944 C 129.93 270.011 129.988 270.07 130.053 270.123 C 130.364 270.374 130.362 270.374 137.683 270.344 C 138.631 270.347 138.68 271.177 138.68 271.344 C 138.68 271.511 138.631 272.344 137.68 272.344 Z  M 127.68 262.344 C 129.334 262.344 130.68 263.69 130.68 265.344 C 130.68 266.998 129.334 268.344 127.68 268.344 C 126.025 268.344 124.68 266.998 124.68 265.344 C 124.68 263.69 126.025 262.344 127.68 262.344 Z  M 138.68 266.344 L 138.68 265.344 L 138.68 260.344 L 146.68 260.344 L 144.88 262.744 C 144.613 263.101 144.613 263.589 144.88 263.943 L 146.68 266.344 L 138.68 266.344 Z  M 146.93 263.344 L 149.479 259.943 C 149.707 259.641 149.744 259.235 149.574 258.897 C 149.405 258.558 149.059 258.344 148.68 258.344 L 137.68 258.344 C 137.127 258.344 136.68 258.791 136.68 259.344 L 136.68 265.344 L 136.68 267.344 L 136.68 268.348 C 134.926 268.354 132.824 268.358 131.647 268.355 C 132.286 267.516 132.68 266.48 132.68 265.344 C 132.68 262.583 130.441 260.344 127.68 260.344 C 124.918 260.344 122.68 262.583 122.68 265.344 C 122.68 266.616 123.169 267.765 123.952 268.646 C 121.919 270.319 120.999 272.47 120.68 276.344 C 120.68 278.027 120.68 279.91 122.847 280.28 L 123.709 284.586 C 124.28 286.869 125.838 288.344 127.68 288.344 C 129.521 288.344 131.08 286.869 131.661 284.54 L 132.644 279.62 C 133.171 278.21 133.514 276.661 133.633 275.173 L 136.68 274.563 L 136.68 287.344 C 136.68 287.897 137.127 288.344 137.68 288.344 C 138.232 288.344 138.68 287.897 138.68 287.344 L 138.68 274.344 C 138.68 274.29 138.657 274.243 138.649 274.192 C 139.979 273.785 140.68 272.564 140.68 271.344 C 140.68 270.134 139.989 268.926 138.68 268.509 L 138.68 268.344 L 148.68 268.344 C 149.059 268.344 149.405 268.131 149.574 267.791 C 149.744 267.452 149.707 267.048 149.479 266.744 L 146.93 263.344 Z " fill="rgb(111,111,111)"/></svg>