<?xml version="1.0" standalone="no"?><!-- Generator: Gravit.io --><svg xmlns="http://www.w3.org/2000/svg" xmlns:xlink="http://www.w3.org/1999/xlink" style="isolation:isolate" viewBox="308.276 100.566 32 32.009" width="32" height="32.009"><g><path d=" M 323.279 109.566 C 323.832 109.566 324.279 109.119 324.279 108.567 L 324.279 107.981 L 326.814 110.517 L 328.937 112.639 C 329.879 113.582 331.293 112.167 330.351 111.224 L 328.229 109.103 L 325.693 106.567 L 326.279 106.567 C 326.832 106.567 327.279 106.12 327.279 105.567 C 327.279 105.015 326.832 104.567 326.279 104.567 L 323.279 104.567 C 323.278 104.567 323.277 104.567 323.276 104.567 C 323.276 104.567 323.273 104.569 323.273 104.567 L 323.272 104.567 C 323.27 104.565 323.269 104.568 323.268 104.567 L 323.268 104.568 C 323.02 104.571 322.795 104.663 322.621 104.814 L 322.62 104.815 L 322.62 104.815 C 322.572 104.857 322.528 104.904 322.488 104.955 C 322.488 104.956 322.488 104.956 322.488 104.956 C 322.37 105.108 322.296 105.295 322.281 105.499 C 322.28 105.524 322.279 105.549 322.279 105.574 L 322.279 108.567 C 322.279 108.843 322.392 109.093 322.572 109.274 C 322.753 109.455 323.003 109.566 323.279 109.566 Z " fill="rgb(111,111,111)"/><path d=" M 323.279 123.566 C 322.727 123.566 322.279 124.014 322.279 124.566 L 322.279 125.151 L 319.744 122.616 L 317.622 120.495 C 316.68 119.552 315.266 120.966 316.208 121.909 L 318.33 124.03 L 320.865 126.566 L 320.279 126.566 C 319.727 126.566 319.279 127.013 319.279 127.565 C 319.279 128.118 319.727 128.565 320.279 128.565 L 323.279 128.565 C 323.28 128.565 323.281 128.566 323.282 128.565 C 323.282 128.565 323.285 128.564 323.285 128.565 L 323.286 128.565 C 323.289 128.568 323.29 128.565 323.291 128.566 L 323.291 128.565 C 323.539 128.563 323.764 128.47 323.938 128.319 L 323.938 128.318 L 323.938 128.317 C 323.986 128.275 324.03 128.229 324.07 128.178 C 324.07 128.177 324.07 128.177 324.07 128.177 C 324.188 128.025 324.263 127.838 324.277 127.634 C 324.278 127.609 324.279 127.584 324.279 127.559 L 324.279 124.566 C 324.279 124.29 324.167 124.04 323.986 123.859 C 323.806 123.678 323.556 123.566 323.279 123.566 Z " fill="rgb(111,111,111)"/><path d=" M 316.042 116.546 L 317.276 114.9 L 315.943 111.566 L 316.78 110.311 C 316.974 110.25 317.166 110.188 317.35 110.105 L 317.819 110.48 C 319.297 111.658 319.979 112.203 320.271 115.543 C 320.045 115.873 318.6 116.446 316.042 116.546 Z  M 312.733 110.48 L 313.204 110.105 C 313.387 110.188 313.579 110.25 313.772 110.311 L 314.609 111.566 L 313.276 114.9 L 314.511 116.546 C 311.953 116.446 310.509 115.873 310.282 115.543 C 310.573 112.203 311.257 111.658 312.733 110.48 Z  M 315.276 102.566 C 316.931 102.566 318.276 103.912 318.276 105.566 C 318.276 107.221 316.931 108.566 315.276 108.566 C 313.622 108.566 312.276 107.221 312.276 105.566 C 312.276 103.912 313.622 102.566 315.276 102.566 Z  M 322.273 115.483 C 321.932 111.388 320.886 110.367 319.066 108.917 L 319.005 108.868 C 319.787 107.986 320.276 106.838 320.276 105.566 C 320.276 102.805 318.038 100.566 315.276 100.566 C 312.515 100.566 310.276 102.805 310.276 105.566 C 310.276 106.838 310.766 107.986 311.548 108.868 L 311.486 108.917 C 309.668 110.367 308.621 111.388 308.276 115.566 C 308.276 116.104 308.501 116.873 309.568 117.49 C 310.822 118.214 313.049 118.575 315.277 118.575 C 317.504 118.575 319.731 118.214 320.986 117.489 C 322.053 116.873 322.277 116.104 322.273 115.483 Z " fill="rgb(111,111,111)"/><path d=" M 334.044 130.546 L 335.278 128.9 L 333.945 125.566 L 334.782 124.311 C 334.977 124.25 335.169 124.188 335.352 124.104 L 335.822 124.48 C 337.299 125.658 337.981 126.203 338.273 129.543 C 338.047 129.873 336.603 130.446 334.044 130.546 Z  M 330.736 124.48 L 331.206 124.105 C 331.389 124.188 331.581 124.25 331.775 124.311 L 332.612 125.566 L 331.278 128.9 L 332.514 130.546 C 329.956 130.446 328.511 129.873 328.285 129.543 C 328.576 126.203 329.259 125.658 330.736 124.48 Z  M 333.278 116.566 C 334.933 116.566 336.278 117.912 336.278 119.566 C 336.278 121.221 334.933 122.566 333.278 122.566 C 331.624 122.566 330.278 121.221 330.278 119.566 C 330.278 117.912 331.624 116.566 333.278 116.566 Z  M 337.069 122.917 L 337.008 122.868 C 337.789 121.986 338.278 120.838 338.278 119.566 C 338.278 116.805 336.04 114.566 333.278 114.566 C 330.518 114.566 328.278 116.805 328.278 119.566 C 328.278 120.838 328.769 121.986 329.551 122.868 L 329.489 122.917 C 327.67 124.367 326.623 125.388 326.278 129.566 C 326.278 130.104 326.503 130.873 327.57 131.49 C 328.824 132.214 331.052 132.575 333.279 132.575 C 335.507 132.575 337.734 132.214 338.988 131.489 C 340.056 130.873 340.279 130.104 340.276 129.483 C 339.935 125.388 338.889 124.367 337.069 122.917 Z " fill="rgb(111,111,111)"/></g></svg>